<svg xmlns="http://www.w3.org/2000/svg" viewBox="0 0 320 64" fill="none">
  <defs>
    <linearGradient id="macro-grad" x1="0%" y1="0%" x2="100%" y2="100%">
      <stop offset="0%" stop-color="#F97316" />
      <stop offset="50%" stop-color="#EF4444" />
      <stop offset="100%" stop-color="#8B5CF6" />
    </linearGradient>
  </defs>
  <!-- Flame & Dial Gauge Emblem -->
  <g transform="translate(8, 7)">
    <rect x="0" y="0" width="50" height="50" rx="14" fill="#1E1B4B" stroke="url(#macro-grad)" stroke-width="1.8" />
    <!-- Flame Motif -->
    <path d="M25 12 C25 18 20 22 20 26 C20 31 24 35 29 35 C34 35 37 31 37 26 C37 20 31 16 31 16 C31 16 31 20 28 22 C27 20 27 16 25 12 Z" fill="url(#macro-grad)" />
    <!-- Inner Spark -->
    <path d="M28 27 C28 29.5 26.5 31 25 31 C23.5 31 23 29.5 23 28 C23 26 25 24 25 24 C25 24 28 25 28 27 Z" fill="#FEF08A" />
  </g>
  <!-- Typography -->
  <text x="68" y="28" font-family="'Plus Jakarta Sans', system-ui, sans-serif" font-weight="900" font-size="20" fill="#0F172A" letter-spacing="0.5">MACRO</text>
  <text x="150" y="28" font-family="'Plus Jakarta Sans', system-ui, sans-serif" font-weight="900" font-size="20" fill="#F97316" letter-spacing="0.5">FLOW</text>
  <text x="68" y="47" font-family="system-ui, sans-serif" font-weight="700" font-size="9.5" fill="#64748B" letter-spacing="1.8">MOBILE CALORIE & NUTRITION TRACKER</text>
</svg>
